<svg width="25" height="24" viewBox="0 0 25 24" fill="none" xmlns="http://www.w3.org/2000/svg">
<g clip-path="url(#clip0_678_960)">
<path d="M23.1758 0H1.82421C1.09287 0 0.5 0.592868 0.5 1.32421V22.6758C0.5 23.4071 1.09287 24 1.82421 24H23.1758C23.9071 24 24.5 23.4071 24.5 22.6758V1.32421C24.5 0.592868 23.9071 0 23.1758 0Z" fill="#3D5A98"/>
<path d="M15.0578 23.9975V14.7037H18.1767L18.6431 11.0819H15.0578V8.77015C15.0578 7.72174 15.3498 7.00589 16.8525 7.00589H18.7709V3.76128C17.8419 3.66464 16.9084 3.61861 15.9744 3.62338C13.2124 3.62338 11.3103 5.30653 11.3103 8.41122V11.0819H8.19141V14.7037H11.3103V23.9975H15.0578Z" fill="white"/>
</g>
<defs>
<clipPath id="clip0_678_960">
<rect x="0.5" width="24" height="24" rx="4.4" fill="white"/>
</clipPath>
</defs>
</svg>
