<svg width="34" height="34" viewBox="0 0 34 34" fill="none" xmlns="http://www.w3.org/2000/svg">
<path d="M10.3267 0.071167H24.3267C29.66 0.071167 33.9934 4.4045 33.9934 9.73783V23.7378C33.9934 26.3016 32.9749 28.7603 31.1621 30.5732C29.3492 32.3861 26.8905 33.4045 24.3267 33.4045H10.3267C4.99337 33.4045 0.660034 29.0712 0.660034 23.7378V9.73783C0.660034 7.17407 1.67848 4.71532 3.49134 2.90247C5.30419 1.08962 7.76294 0.071167 10.3267 0.071167ZM9.99337 3.4045C8.40207 3.4045 6.87595 4.03664 5.75073 5.16186C4.62551 6.28708 3.99337 7.8132 3.99337 9.4045V24.0712C3.99337 27.3878 6.6767 30.0712 9.99337 30.0712H24.66C26.2513 30.0712 27.7775 29.439 28.9027 28.3138C30.0279 27.1886 30.66 25.6625 30.66 24.0712V9.4045C30.66 6.08783 27.9767 3.4045 24.66 3.4045H9.99337ZM26.0767 5.9045C26.6292 5.9045 27.1591 6.12399 27.5498 6.51469C27.9405 6.9054 28.16 7.4353 28.16 7.98783C28.16 8.54037 27.9405 9.07027 27.5498 9.46097C27.1591 9.85167 26.6292 10.0712 26.0767 10.0712C25.5242 10.0712 24.9943 9.85167 24.6036 9.46097C24.2129 9.07027 23.9934 8.54037 23.9934 7.98783C23.9934 7.4353 24.2129 6.9054 24.6036 6.51469C24.9943 6.12399 25.5242 5.9045 26.0767 5.9045ZM17.3267 8.4045C19.5368 8.4045 21.6565 9.28247 23.2193 10.8453C24.7821 12.4081 25.66 14.5277 25.66 16.7378C25.66 18.948 24.7821 21.0676 23.2193 22.6304C21.6565 24.1932 19.5368 25.0712 17.3267 25.0712C15.1166 25.0712 12.9969 24.1932 11.4341 22.6304C9.87134 21.0676 8.99337 18.948 8.99337 16.7378C8.99337 14.5277 9.87134 12.4081 11.4341 10.8453C12.9969 9.28247 15.1166 8.4045 17.3267 8.4045ZM17.3267 11.7378C16.0006 11.7378 14.7288 12.2646 13.7912 13.2023C12.8535 14.14 12.3267 15.4118 12.3267 16.7378C12.3267 18.0639 12.8535 19.3357 13.7912 20.2734C14.7288 21.2111 16.0006 21.7378 17.3267 21.7378C18.6528 21.7378 19.9246 21.2111 20.8622 20.2734C21.7999 19.3357 22.3267 18.0639 22.3267 16.7378C22.3267 15.4118 21.7999 14.14 20.8622 13.2023C19.9246 12.2646 18.6528 11.7378 17.3267 11.7378Z" fill="black"/>
</svg>
