<svg width="20" height="21" viewBox="0 0 20 21" fill="none" xmlns="http://www.w3.org/2000/svg">
<path fill-rule="evenodd" clip-rule="evenodd" d="M6.30774 14.1783C10.1527 18.0233 13.7157 18.4443 14.7617 18.4833C16.0257 18.5293 17.3157 17.4973 17.8737 16.4403C16.9837 15.3963 15.8247 14.5863 14.5557 13.7083C13.8067 14.4563 12.8837 15.8463 11.6547 15.3483C10.9557 15.0673 9.22974 14.2723 7.72174 12.7633C6.21274 11.2553 5.41874 9.52934 5.13574 8.83134C4.63774 7.60034 6.03174 6.67534 6.78074 5.92634C5.90274 4.63634 5.10674 3.44734 4.06474 2.60234C2.99274 3.16234 1.95474 4.44234 2.00174 5.72334C2.04074 6.76934 2.46174 10.3323 6.30774 14.1783ZM14.6877 20.4823C13.2477 20.4293 9.16674 19.8653 4.89274 15.5923C0.619742 11.3183 0.056742 7.23834 0.002742 5.79734C-0.077258 3.60134 1.60474 1.46834 3.54774 0.635337C3.78172 0.534304 4.03794 0.495837 4.29127 0.523712C4.5446 0.551587 4.78633 0.644846 4.99274 0.794337C6.60074 1.96734 7.70974 3.74434 8.66274 5.13634C8.86099 5.42579 8.95181 5.77544 8.91949 6.12478C8.88717 6.47412 8.73373 6.80117 8.48574 7.04934L7.12974 8.40634C7.44474 9.10134 8.08574 10.2993 9.13574 11.3493C10.1857 12.3993 11.3837 13.0403 12.0797 13.3553L13.4347 11.9993C13.6839 11.7508 14.0123 11.5976 14.3628 11.5663C14.7133 11.5351 15.0636 11.6278 15.3527 11.8283C16.7727 12.8123 18.4407 13.9053 19.6567 15.4623C19.8184 15.6702 19.9212 15.9177 19.9544 16.179C19.9877 16.4402 19.9501 16.7056 19.8457 16.9473C19.0087 18.9003 16.8907 20.5633 14.6877 20.4823Z" fill="black"/>
</svg>
