<svg width="25" height="24" viewBox="0 0 25 24" fill="none" xmlns="http://www.w3.org/2000/svg">
<path d="M15.1667 0V2.66667H19.9533L6.84667 15.7733L8.72667 17.6533L21.8333 4.54667V9.33333H24.5V0M21.8333 21.3333H3.16667V2.66667H12.5V0H3.16667C2.45942 0 1.78115 0.280951 1.28105 0.781048C0.780951 1.28115 0.5 1.95942 0.5 2.66667V21.3333C0.5 22.0406 0.780951 22.7189 1.28105 23.219C1.78115 23.719 2.45942 24 3.16667 24H21.8333C22.5406 24 23.2189 23.719 23.719 23.219C24.219 22.7189 24.5 22.0406 24.5 21.3333V12H21.8333V21.3333Z" fill="#243662"/>
</svg>
