<svg width="34" height="34" viewBox="0 0 34 34" fill="none" xmlns="http://www.w3.org/2000/svg">
<path d="M9.66001 0.0712891H23.66C28.9933 0.0712891 33.3267 4.40462 33.3267 9.73796V23.738C33.3267 26.3017 32.3082 28.7605 30.4954 30.5733C28.6825 32.3862 26.2238 33.4046 23.66 33.4046H9.66001C4.32668 33.4046 -0.00665283 29.0713 -0.00665283 23.738V9.73796C-0.00665283 7.1742 1.0118 4.71544 2.82465 2.90259C4.6375 1.08974 7.09625 0.0712891 9.66001 0.0712891ZM9.32668 3.40462C7.73538 3.40462 6.20926 4.03676 5.08404 5.16198C3.95882 6.2872 3.32668 7.81332 3.32668 9.40462V24.0713C3.32668 27.388 6.01001 30.0713 9.32668 30.0713H23.9933C25.5846 30.0713 27.1108 29.4391 28.236 28.3139C29.3612 27.1887 29.9933 25.6626 29.9933 24.0713V9.40462C29.9933 6.08796 27.31 3.40462 23.9933 3.40462H9.32668ZM25.41 5.90462C25.9625 5.90462 26.4925 6.12412 26.8832 6.51482C27.2739 6.90552 27.4933 7.43542 27.4933 7.98796C27.4933 8.54049 27.2739 9.07039 26.8832 9.46109C26.4925 9.8518 25.9625 10.0713 25.41 10.0713C24.8575 10.0713 24.3276 9.8518 23.9369 9.46109C23.5462 9.07039 23.3267 8.54049 23.3267 7.98796C23.3267 7.43542 23.5462 6.90552 23.9369 6.51482C24.3276 6.12412 24.8575 5.90462 25.41 5.90462ZM16.66 8.40462C18.8702 8.40462 20.9898 9.2826 22.5526 10.8454C24.1154 12.4082 24.9933 14.5278 24.9933 16.738C24.9933 18.9481 24.1154 21.0677 22.5526 22.6305C20.9898 24.1933 18.8702 25.0713 16.66 25.0713C14.4499 25.0713 12.3303 24.1933 10.7675 22.6305C9.20465 21.0677 8.32668 18.9481 8.32668 16.738C8.32668 14.5278 9.20465 12.4082 10.7675 10.8454C12.3303 9.2826 14.4499 8.40462 16.66 8.40462ZM16.66 11.738C15.3339 11.738 14.0622 12.2647 13.1245 13.2024C12.1868 14.1401 11.66 15.4119 11.66 16.738C11.66 18.064 12.1868 19.3358 13.1245 20.2735C14.0622 21.2112 15.3339 21.738 16.66 21.738C17.9861 21.738 19.2579 21.2112 20.1955 20.2735C21.1332 19.3358 21.66 18.064 21.66 16.738C21.66 15.4119 21.1332 14.1401 20.1955 13.2024C19.2579 12.2647 17.9861 11.738 16.66 11.738Z" fill="url(#paint0_radial_74_947)"/>
<path d="M9.66001 0.0712891H23.66C28.9933 0.0712891 33.3267 4.40462 33.3267 9.73796V23.738C33.3267 26.3017 32.3082 28.7605 30.4954 30.5733C28.6825 32.3862 26.2238 33.4046 23.66 33.4046H9.66001C4.32668 33.4046 -0.00665283 29.0713 -0.00665283 23.738V9.73796C-0.00665283 7.1742 1.0118 4.71544 2.82465 2.90259C4.6375 1.08974 7.09625 0.0712891 9.66001 0.0712891ZM9.32668 3.40462C7.73538 3.40462 6.20926 4.03676 5.08404 5.16198C3.95882 6.2872 3.32668 7.81332 3.32668 9.40462V24.0713C3.32668 27.388 6.01001 30.0713 9.32668 30.0713H23.9933C25.5846 30.0713 27.1108 29.4391 28.236 28.3139C29.3612 27.1887 29.9933 25.6626 29.9933 24.0713V9.40462C29.9933 6.08796 27.31 3.40462 23.9933 3.40462H9.32668ZM25.41 5.90462C25.9625 5.90462 26.4925 6.12412 26.8832 6.51482C27.2739 6.90552 27.4933 7.43542 27.4933 7.98796C27.4933 8.54049 27.2739 9.07039 26.8832 9.46109C26.4925 9.8518 25.9625 10.0713 25.41 10.0713C24.8575 10.0713 24.3276 9.8518 23.9369 9.46109C23.5462 9.07039 23.3267 8.54049 23.3267 7.98796C23.3267 7.43542 23.5462 6.90552 23.9369 6.51482C24.3276 6.12412 24.8575 5.90462 25.41 5.90462ZM16.66 8.40462C18.8702 8.40462 20.9898 9.2826 22.5526 10.8454C24.1154 12.4082 24.9933 14.5278 24.9933 16.738C24.9933 18.9481 24.1154 21.0677 22.5526 22.6305C20.9898 24.1933 18.8702 25.0713 16.66 25.0713C14.4499 25.0713 12.3303 24.1933 10.7675 22.6305C9.20465 21.0677 8.32668 18.9481 8.32668 16.738C8.32668 14.5278 9.20465 12.4082 10.7675 10.8454C12.3303 9.2826 14.4499 8.40462 16.66 8.40462ZM16.66 11.738C15.3339 11.738 14.0622 12.2647 13.1245 13.2024C12.1868 14.1401 11.66 15.4119 11.66 16.738C11.66 18.064 12.1868 19.3358 13.1245 20.2735C14.0622 21.2112 15.3339 21.738 16.66 21.738C17.9861 21.738 19.2579 21.2112 20.1955 20.2735C21.1332 19.3358 21.66 18.064 21.66 16.738C21.66 15.4119 21.1332 14.1401 20.1955 13.2024C19.2579 12.2647 17.9861 11.738 16.66 11.738Z" fill="url(#paint1_radial_74_947)"/>
<defs>
<radialGradient id="paint0_radial_74_947" cx="0" cy="0" r="1" gradientUnits="userSpaceOnUse" gradientTransform="translate(21.5 26.5) rotate(-108.435) scale(31.6228)">
<stop offset="0.24" stop-color="#FF1B90"/>
<stop offset="0.44" stop-color="#F80261"/>
<stop offset="0.69" stop-color="#ED00C0"/>
<stop offset="0.78" stop-color="#C500E9"/>
<stop offset="0.89" stop-color="#7017FF"/>
</radialGradient>
<radialGradient id="paint1_radial_74_947" cx="0" cy="0" r="1" gradientUnits="userSpaceOnUse" gradientTransform="translate(13 30) rotate(-64.5923) scale(22.1416)">
<stop stop-color="#FFD600"/>
<stop offset="0.48" stop-color="#FF6930"/>
<stop offset="0.72" stop-color="#FE3B36"/>
<stop offset="1" stop-color="#FE3B36" stop-opacity="0"/>
</radialGradient>
</defs>
</svg>
