<svg width="34" height="36" viewBox="0 0 34 36" fill="none" xmlns="http://www.w3.org/2000/svg">
<path fill-rule="evenodd" clip-rule="evenodd" d="M16.995 0C18.7638 0 20.3811 0.789897 21.7701 2.0737C24.3733 4.47906 26.7127 8.66569 28.6224 12.8488C30.5641 17.1014 32.1778 21.6107 33.2583 24.8827C34.4566 28.5076 32.8892 32.368 29.6851 34.2901C28.0249 35.2905 26.0658 35.6754 24.1506 35.3775C22.2353 35.0796 20.4857 34.1178 19.2078 32.6604C18.4683 31.8139 17.7307 30.9658 16.995 30.1159C16.239 30.9896 15.483 31.858 14.7805 32.6604C13.5027 34.1174 11.7534 35.0788 9.83853 35.3767C7.92365 35.6747 5.96497 35.29 4.30495 34.2901C1.10079 32.368 -0.466528 28.5076 0.731691 24.8827C1.81223 21.6107 3.4259 17.1014 5.36766 12.8488C7.27732 8.66569 9.61313 4.47906 12.2164 2.0737C13.6072 0.789897 15.2244 0 16.9932 0H16.995ZM19.3415 27.3772C20.4649 26.0488 21.4277 24.8791 21.9876 24.132C23.6637 21.8978 24.0934 19.0503 23.2607 16.6788C22.3941 14.211 20.1814 12.3638 16.995 12.3638C13.8087 12.3638 11.5959 14.211 10.7293 16.6788C9.89664 19.0503 10.3246 21.8978 12.0024 24.132C12.5605 24.8791 13.5234 26.0488 14.6485 27.3772C13.7926 28.3685 12.9154 29.3742 12.0987 30.3121C11.3713 31.1404 10.3758 31.6864 9.28636 31.8546C8.19693 32.0228 7.08305 31.8025 6.13972 31.2321C4.29604 30.1266 3.46869 27.9656 4.11773 26.0006C5.17865 22.7911 6.74597 18.4155 8.61105 14.3305C10.5064 10.1759 12.6015 6.57416 14.6378 4.69302C15.5579 3.84429 16.3513 3.56613 16.995 3.56613C17.6369 3.56613 18.4304 3.84429 19.3522 4.69302C21.3885 6.57416 23.4818 10.1777 25.379 14.3305C27.2441 18.4155 28.8114 22.7911 29.8723 26.0006C30.5213 27.9656 29.694 30.1249 27.8503 31.2321C26.9072 31.802 25.7937 32.0221 24.7046 31.8539C23.6156 31.6857 22.6204 31.1399 21.8931 30.3121C21.0729 29.376 20.1974 28.3685 19.3415 27.3772ZM16.995 24.6277C16.2605 23.7673 15.5471 22.8892 14.8553 21.9941C13.8568 20.6639 13.6732 19.0538 14.094 17.861C14.4809 16.759 15.3885 15.9317 16.995 15.9317C18.5998 15.9317 19.5091 16.759 19.8961 17.861C20.3151 19.0556 20.1314 20.6639 19.1347 21.9941C18.4433 22.8895 17.7299 23.7676 16.995 24.6277Z" fill="#EB4C60"/>
</svg>
