<svg width="34" height="36" viewBox="0 0 34 36" fill="none" xmlns="http://www.w3.org/2000/svg">
<path fill-rule="evenodd" clip-rule="evenodd" d="M16.665 0C18.4338 0 20.051 0.789897 21.44 2.0737C24.0433 4.47906 26.3827 8.66569 28.2924 12.8488C30.2341 17.1014 31.8478 21.6107 32.9283 24.8827C34.1265 28.5076 32.5592 32.368 29.3551 34.2901C27.6949 35.2905 25.7358 35.6754 23.8205 35.3775C21.9053 35.0796 20.1557 34.1178 18.8778 32.6604C18.1383 31.8139 17.4007 30.9658 16.665 30.1159C15.909 30.9896 15.153 31.858 14.4504 32.6604C13.1726 34.1174 11.4234 35.0788 9.50851 35.3767C7.59363 35.6747 5.63496 35.29 3.97493 34.2901C0.770768 32.368 -0.796545 28.5076 0.401674 24.8827C1.48221 21.6107 3.09588 17.1014 5.03764 12.8488C6.9473 8.66569 9.28312 4.47906 11.8864 2.0737C13.2772 0.789897 14.8944 0 16.6632 0H16.665ZM19.0115 27.3772C20.1348 26.0488 21.0977 24.8791 21.6576 24.132C23.3337 21.8978 23.7634 19.0503 22.9307 16.6788C22.0641 14.211 19.8513 12.3638 16.665 12.3638C13.4787 12.3638 11.2659 14.211 10.3993 16.6788C9.56662 19.0503 9.99456 21.8978 11.6724 24.132C12.2305 24.8791 13.1934 26.0488 14.3185 27.3772C13.4626 28.3685 12.5853 29.3742 11.7687 30.3121C11.0413 31.1404 10.0458 31.6864 8.95635 31.8546C7.86692 32.0228 6.75303 31.8025 5.80971 31.2321C3.96602 30.1266 3.13868 27.9656 3.78771 26.0006C4.84864 22.7911 6.41595 18.4155 8.28103 14.3305C10.1764 10.1759 12.2715 6.57416 14.3078 4.69302C15.2279 3.84429 16.0213 3.56613 16.665 3.56613C17.3069 3.56613 18.1004 3.84429 19.0222 4.69302C21.0585 6.57416 23.1518 10.1777 25.049 14.3305C26.9141 18.4155 28.4814 22.7911 29.5423 26.0006C30.1913 27.9656 29.364 30.1249 27.5203 31.2321C26.5771 31.802 25.4636 32.0221 24.3746 31.8539C23.2856 31.6857 22.2904 31.1399 21.5631 30.3121C20.7429 29.376 19.8674 28.3685 19.0115 27.3772ZM16.665 24.6277C15.9305 23.7673 15.2171 22.8892 14.5253 21.9941C13.5268 20.6639 13.3432 19.0538 13.764 17.861C14.1509 16.759 15.0585 15.9317 16.665 15.9317C18.2698 15.9317 19.1791 16.759 19.566 17.861C19.9851 19.0556 19.8014 20.6639 18.8047 21.9941C18.1133 22.8895 17.3999 23.7676 16.665 24.6277Z" fill="black"/>
</svg>
